<svg width="172" height="195" viewBox="0 0 172 195" fill="none" xmlns="http://www.w3.org/2000/svg">
<g id="gift" clip-path="url(#clip0_142:709)">
<g id="&#208;&#161;&#208;&#187;&#208;&#190;&#208;&#185;_x0020_1">
<path id="Vector" fill-rule="evenodd" clip-rule="evenodd" d="M19.1161 93.6132C19.1161 93.6132 18.3078 93.0079 19.1161 93.6132V93.6132ZM110.45 54.4415C123.587 52.1406 137.003 51.2658 150.078 53.6988L150.654 54.0751L150.799 54.7502C150.799 54.7502 150.557 55.2875 149.77 55.4616C149.65 55.4875 145.432 54.7445 142.087 54.4669C125.615 53.1077 108.869 56.3261 93.0933 60.6245C69.5328 67.038 46.5189 75.9871 26.0685 89.8807C26.0685 89.8807 22.8681 91.7313 20.1149 93.715L19.4293 93.7702C18.4894 93.9487 19.1192 93.6227 19.1192 93.6227C19.1192 93.6227 18.6498 94.1129 18.5215 93.7341L18.7163 92.6596C18.8901 91.9662 19.1993 91.9482 19.5065 91.6858C21.0681 90.3563 22.6893 89.1025 24.3159 87.8621L24.4948 87.7278C49.7789 70.6686 79.5592 60.1787 109.147 54.6794C109.583 54.597 110.015 54.5195 110.453 54.441L110.45 54.4415Z" fill="white"/>
<path id="Vector_2" fill-rule="evenodd" clip-rule="evenodd" d="M19.2868 93.8101C19.4329 93.7739 19.7747 93.4232 19.2868 93.8101V93.8101ZM19.1601 93.8904C19.1601 93.8904 18.6741 93.4361 19.1292 93.2279C19.1292 93.2279 19.5272 93.2876 20.0489 94.2783C20.3197 94.8014 20.3703 94.7866 20.5251 95.0152C26.9438 104.592 32.0177 114.803 37.5301 125.003C45.8534 140.515 51.8453 157.199 58.2487 173.496C60.0923 178.28 61.0033 183.42 62.7123 187.766L62.4998 188.42C62.4998 188.42 61.9172 188.319 61.6054 187.784C60.6782 186.178 59.9006 184.49 59.1847 182.777L59.1542 182.703C52.2747 160.656 43.453 138.618 32.8053 118.636C28.7367 110.989 24.9824 103.087 20.3617 95.9357C19.7473 94.9817 19.2513 94.0541 19.1617 93.8916L19.1601 93.8904Z" fill="white"/>
<path id="Vector_3" fill-rule="evenodd" clip-rule="evenodd" d="M150.769 54.7975C150.992 54.1814 150.955 55.4609 151.091 56.2443C152.405 64.4423 152.591 72.8481 152.802 81.2105C153.393 104.297 152.654 127.613 153.277 150.311C153.359 153.466 153.398 156.628 153.334 159.78C153.334 159.78 153.067 161.39 152.863 162.472L152.127 163.204L151.462 162.409C151.222 159.742 151.278 157.057 151.285 154.375C151.292 146.666 150.974 138.98 151.077 131.263C151.411 108.417 152.781 85.4964 151.124 62.7957C150.928 60.1599 150.588 57.5108 150.201 54.9237C150.138 54.4656 150.265 54.4715 150.265 54.4715L150.69 54.4386C150.69 54.4386 150.643 54.9884 150.769 54.7975Z" fill="white"/>
<path id="Vector_4" fill-rule="evenodd" clip-rule="evenodd" d="M62.8961 187.635C62.8961 187.635 63.3103 188.066 62.9121 187.644C62.9121 187.644 62.8881 187.631 62.8961 187.635ZM62.9893 188.018C62.9893 188.018 62.9921 188.018 62.9893 188.018V188.018ZM131.862 163.717C137.813 162.669 143.697 162.482 149.694 162.007C150.687 161.932 151.705 161.893 152.675 162.17C152.675 162.17 153.503 162.637 153.31 163.309L152.873 163.867C152.873 163.867 150.781 163.782 148.631 163.959C148.068 164.006 148.044 164.001 147.804 164.011C127.871 164.375 108.741 170.875 89.8668 177.224C84.0658 179.178 78.2972 181.248 72.7708 183.898C72.7708 183.898 67.2056 186.277 63.7844 187.827C63.5532 187.919 63.2964 187.956 63.0714 188.002C62.938 188.029 62.9986 188.054 62.9986 188.054C62.9986 188.054 62.1213 188.325 62.4046 187.688C62.8112 186.783 63.4753 187.147 63.4753 187.147C66.0339 185.539 68.7065 184.038 71.3699 182.541C71.3699 182.541 75.105 180.726 78.0588 179.524C95.3973 172.475 113.815 166.934 131.863 163.72L131.862 163.717Z" fill="white"/>
<path id="Vector_5" fill-rule="evenodd" clip-rule="evenodd" d="M58.265 71.7901C58.9087 71.718 58.1154 71.7104 58.265 71.7901V71.7901ZM67.631 108.251C66.5455 107.4 66.1634 107.213 65.5068 106.754C64.5398 106.091 63.5522 105.473 62.5165 104.924C62.4896 104.911 61.9109 103.963 61.1547 105.111C59.5526 107.556 60.147 111.765 57.8519 113.236C56.4198 114.155 55.916 111.304 55.4994 109.124C53.2741 97.4202 53.9718 85.131 57.3064 73.4954C57.5115 72.7761 57.9151 71.7175 57.9179 71.717C58.141 71.1543 57.9452 71.4356 58.059 71.6528C58.059 71.6528 58.2084 70.968 58.5397 71.2902C58.5397 71.2902 58.2861 72.5264 58.2844 72.5411C58.205 72.7728 58.1957 72.8335 58.1588 72.9654C55.6339 82.5625 55.0691 92.5643 56.2168 102.376C56.5212 104.982 56.9238 107.567 57.4883 110.122C57.4883 110.122 58.4169 102.882 61.5691 102.747C64.1942 102.635 66.4694 104.878 68.9911 106.866L69.1685 107.004C67.9229 102.689 66.6069 98.3902 65.7868 93.9986C64.6803 88.1048 64.2674 82.0967 64.3977 76.0821L64.4008 75.8583C64.5995 73.3836 64.8997 70.9209 65.2912 68.4691L65.9795 67.8908L66.5354 68.5989C65.9207 80.7724 67.195 92.6405 70.5563 104.721C71.0773 106.616 72.3985 109.215 70.4604 109.674C69.5246 109.899 68.569 109.002 67.6724 108.281C67.6486 108.261 67.6486 108.261 67.6308 108.25L67.631 108.251Z" fill="white"/>
<path id="Vector_6" fill-rule="evenodd" clip-rule="evenodd" d="M89.2344 61.3391C89.2344 61.3391 89.2302 61.3398 89.2344 61.3391V61.3391ZM89.2352 61.3433C89.2352 61.3433 89.2302 61.3398 89.2352 61.3433V61.3433ZM125.829 82.2801C125.829 82.2801 125.827 82.2704 125.829 82.2801V82.2801ZM125.829 82.2801C125.829 82.2801 125.828 82.2759 125.829 82.2801V82.2801ZM126.993 79.9665C127.148 80.1562 127.303 80.3459 127.449 80.5428C128.074 81.3883 128.817 83.1572 126.979 83.4578C125.733 83.6624 124.275 82.9214 124.275 82.9214C123.136 82.613 122.007 82.2292 120.839 82.057L120.141 81.9935C118.769 81.9543 119.706 81.9692 119.306 82.061L118.484 82.9297C118.342 83.246 118.451 82.9846 118.309 83.3816C118.236 83.5933 117.706 87.3945 117.305 89.1554C117.137 89.901 116.924 93.1962 114.705 92.4708C113.522 92.0881 113.276 90.3367 112.835 89.0507C108.937 77.8558 100.809 68.313 90.1177 61.8489C88.9594 61.1465 88.6604 61.0849 88.6604 61.0849C88.6604 61.0849 88.3053 60.4127 89.3805 60.724C92.8336 61.7942 98.7751 66.1924 103.263 70.4018C107.377 74.2707 110.821 78.8848 113.331 83.9611C113.925 85.152 114.429 86.3965 114.904 87.6518L114.954 87.7927C115.345 84.8241 115.31 81.2638 117.917 79.9558C120.056 78.8798 122.535 79.9115 124.611 80.5618L124.678 80.5787C118.228 70.803 108.989 62.8976 98.528 58.5304L98.3025 58.0194C98.3025 58.0194 98.683 57.7482 99.356 58.0005C102.879 59.339 106.184 61.2046 109.48 63.0573C109.71 63.1904 109.71 63.1904 109.944 63.3227C116.777 67.3437 122.406 73.4279 126.864 79.811C126.931 79.91 126.956 79.9199 126.995 79.9719L126.993 79.9665Z" fill="white"/>
<path id="Vector_7" fill-rule="evenodd" clip-rule="evenodd" d="M71.1274 66.1173L71.1799 66.4664C71.1799 66.4664 71.261 65.9868 71.1274 66.1173ZM69.957 55.6086C69.957 55.6086 65.736 59.0115 65.5191 61.3441L66.0609 62.9216C66.5145 63.4119 66.2833 63.1582 66.5609 63.3734C66.6312 63.4284 67.3465 63.8762 67.3622 63.8835C68.4383 64.4653 69.569 64.9495 70.7435 65.3006L71.2099 66.0392C71.2099 66.0392 71.8406 66.0716 71.6792 66.4245L70.9643 66.6692C66.7438 67.8172 59.8088 61.9325 67.1106 55.3685C68.918 53.7473 71.3402 52.9216 73.7645 52.9033C73.7645 52.9033 77.7355 53.2557 77.7523 53.2527C78.5651 53.2568 77.8369 53.3153 78.8241 53.1917L79.3669 53.3119C79.3669 53.3119 77.8116 54.1622 76.9913 54.2934C75.782 54.4956 73.979 54.6546 73.979 54.6546C73.8418 54.6605 73.703 54.6652 73.5592 54.6665C72.9218 54.6929 72.1208 54.8033 72.1041 54.8063C71.4261 54.9278 72.0888 54.737 71.172 55.0367C71.1082 55.0582 70.419 55.3501 70.419 55.3501C70.0929 55.5151 70.4514 55.3299 70.1076 55.5168C70.1076 55.5168 70.0551 55.5449 69.9568 55.6072L69.957 55.6086Z" fill="white"/>
<path id="Vector_8" fill-rule="evenodd" clip-rule="evenodd" d="M70.5294 54.4622C70.5294 54.4622 70.36 53.7179 70.5294 54.4622V54.4622ZM84.6456 52.8613C84.7237 52.3491 84.6628 52.9014 84.707 52.3521L84.7152 51.707C84.6046 50.5116 84.7111 51.3305 84.5617 50.9066L83.8275 49.9352C82.7867 49.2938 83.599 49.753 83.1036 49.5998L81.5935 49.473C81.1368 49.5361 81.5456 49.4629 81.0508 49.5703C81.0508 49.5703 80.2381 49.8081 80.2249 49.8148C76.638 51.1155 74.3925 53.5942 71.2915 54.5128C69.9277 54.9213 70.4759 54.5337 70.4759 54.5337C70.4759 54.5337 69.2539 54.0701 70.5961 53.975C71.4366 53.9166 70.9348 53.9043 71.2936 53.7291C72.572 53.117 76.6618 49.6412 78.9646 48.4063C81.6388 46.9696 85.7823 47.1357 86.9593 50.3373C87.9913 53.1473 86.3012 56.3875 85.7239 59.1518L85.5891 60.0471C85.5487 60.577 85.558 60.1304 85.568 60.6844C85.568 60.6844 85.3706 60.9084 85.1791 61.1659L83.9088 61.3648C82.8809 60.5382 83.2826 59.6138 83.3874 58.6562C83.6093 56.6078 84.3417 55.0064 84.5898 53.201C84.5898 53.201 84.6018 53.1312 84.6458 52.8627L84.6456 52.8613Z" fill="white"/>
<path id="Vector_9" fill-rule="evenodd" clip-rule="evenodd" d="M113.308 4.98368C117.228 4.33456 121.601 5.05568 124.206 7.90341C129.451 13.6315 131.765 22.4393 132.968 27.8032C133.636 30.7749 133.769 33.975 132.587 36.852C130.029 43.0973 123.335 46.5431 118.419 49.519C108.899 55.2897 98.2324 58.929 87.2955 61.2374L86.7135 61.3561L85.7845 60.768L86.3769 59.8397C99.7692 56.6897 112.568 51.4343 123.961 42.7492C126.476 40.8269 128.913 38.6537 130.057 35.7042C130.065 35.6682 130.253 35.1221 130.258 35.0966C130.392 34.632 130.281 35.0882 130.371 34.6746C131.949 27.8981 127.394 20.818 125.155 15.369C123.706 11.8734 121.839 8.50171 117.531 7.79355C109.813 6.5243 102.917 13.9544 98.6172 17.7833C90.6414 24.8928 83.4681 33.0494 78.8288 42.6107C78.8288 42.6107 77.5711 44.9369 76.5897 47.0134C75.7624 48.7685 74.9701 50.5505 74.4245 52.415C74.1695 53.2742 74.3115 52.837 74.2597 53.199C74.2403 53.3479 73.9461 52.9356 73.9461 52.9356C73.9461 52.9356 74.5414 52.9311 73.9706 53.546C73.9706 53.546 72.9687 55.0661 74.1031 50.4208C74.8126 47.5262 75.7942 44.7038 76.8864 41.9278L76.9474 41.7859C83.0192 28.5913 93.3517 17.5994 104.632 9.10862C107.117 7.23636 109.894 5.66464 112.981 5.04383C113.145 5.01433 113.145 5.01433 113.309 4.98508L113.308 4.98368Z" fill="white"/>
<path id="Vector_10" fill-rule="evenodd" clip-rule="evenodd" d="M82.322 49.1266C82.322 49.1266 82.3334 49.1101 82.322 49.1266V49.1266ZM82.322 49.1266C82.322 49.1266 82.3352 49.1199 82.322 49.1266V49.1266ZM82.3248 49.1261C82.3248 49.1261 82.337 49.1138 82.3248 49.1261V49.1261ZM82.4282 49.0686C81.9734 49.2221 83.0803 48.923 82.4282 49.0686V49.0686ZM82.332 49.1104C82.332 49.1104 84.3185 45.7004 85.9167 43.5465C89.6512 38.5216 93.7569 33.881 98.9595 29.8328C105.369 24.8369 115.008 22.0599 121.684 26.1868C121.858 26.2909 122.022 26.4026 122.187 26.5127C123.334 27.3181 124.154 28.5995 124.764 29.8984L124.72 30.4332C124.72 30.4332 124.037 30.0186 124.089 30.1014C123.721 29.6937 124.063 30.0383 123.548 29.5403C123.548 29.5403 122.866 28.9512 122.856 28.9487C122.318 28.5412 122.763 28.8343 122.124 28.4361C121.601 28.1095 121.836 28.3136 121.38 28.008C121.153 27.85 121.457 28.0374 120.954 27.7401L120.371 27.4243C119.947 27.2195 119.917 27.2147 119.755 27.1472C113.155 24.4739 104.973 28.0742 99.5638 32.1204C93.2789 36.8219 87.6752 42.4481 83.0865 48.9896C82.9841 49.1332 83.3637 48.9298 82.7917 49.5463C82.6192 49.7328 82.2355 49.5682 82.2355 49.5682C82.2355 49.5682 82.2942 49.1805 82.3306 49.1106L82.332 49.1104Z" fill="white"/>
<path id="Vector_11" fill-rule="evenodd" clip-rule="evenodd" d="M86.123 56.0608C86.123 56.0608 85.8892 55.1495 86.123 56.0608V56.0608ZM112.52 29.9958C112.469 28.6789 112.499 29.4438 112.433 28.9704C112.306 28.0977 112.468 28.7857 112.186 27.9118L111.896 27.2424C111.076 25.8025 111.536 26.6633 111.17 26.3804L110.895 26.1978L110.681 25.4615L111.423 25.2509C112.038 25.5855 112.144 25.7408 112.415 26.0406C114.799 28.7638 113.865 32.8649 112.991 35.9489C110.777 43.7351 103.176 49.0885 96.2552 52.6123C94.9412 53.2827 93.6092 53.9087 92.2697 54.5173C92.2697 54.5173 89.9009 55.5365 87.2777 56.3896L85.9671 56.227C84.1691 56.1331 85.8538 55.5547 85.8538 55.5547C86.066 55.3569 86.6593 54.7624 86.6593 54.7624C86.8161 54.7055 86.9719 54.6431 87.1266 54.5822C98.1389 50.1798 110.364 45.4491 112.316 32.9194C112.491 31.7937 112.523 30.0804 112.521 30.0706C112.517 30.0469 112.517 30.0224 112.517 29.9935L112.52 29.9958Z" fill="white"/>
<path id="Vector_12" fill-rule="evenodd" clip-rule="evenodd" d="M7.37288 61.1778C6.91183 61.3771 7.82546 61.0679 7.37288 61.1778V61.1778ZM7.19461 61.2918C7.19461 61.2918 7.19386 61.2877 7.19461 61.2918V61.2918ZM19.9652 36.0633C22.8315 35.5784 25.7491 35.5005 28.6551 35.478L29.1024 35.4756C41.5753 35.4233 54.1073 39.2841 64.7526 45.5046C67.9429 47.3663 71.0396 49.5169 73.4057 52.3398L73.4472 53.6239L72.3329 53.5284C67.7283 48.1938 60.8859 45.2443 54.766 42.8233C46.3281 39.4873 37.3288 37.9927 28.196 37.8338C23.8261 37.7702 19.3419 37.6393 15.1947 39.5977C15.1657 39.613 14.5402 39.9468 14.5244 39.9554C13.9056 40.3269 14.5778 39.8595 13.678 40.5189C13.6568 40.5371 13.1268 40.9705 13.1146 40.9827C12.5113 41.5213 12.453 41.6139 12.1663 41.9503C8.20051 46.6005 7.80202 53.7216 7.68993 60.4241C7.68758 60.652 7.67937 60.092 7.82042 61.2085C7.84824 61.4843 7.71873 61.9668 7.25232 61.7264C7.25232 61.7264 6.86071 53.5951 7.60469 49.0528C8.49024 43.6775 11.1106 38.4131 17.6906 36.5717C18.4384 36.3657 19.1962 36.1996 19.9635 36.0621L19.9652 36.0633Z" fill="white"/>
<path id="Vector_13" fill-rule="evenodd" clip-rule="evenodd" d="M10.1647 45.3241C10.0307 45.6044 10.0352 45.6137 10.0332 45.6184C9.76463 46.2813 9.43109 47.2885 9.44133 47.2492C7.95703 52.1358 7.84663 57.4255 8.47981 62.582C8.83897 65.5183 9.46117 68.5083 11.1028 70.9039C11.4869 71.4643 11.1917 71.0622 11.5358 71.48C12.0868 72.1602 11.7945 71.831 12.299 72.2921C12.3616 72.3442 13.1402 72.9448 13.1525 72.957C13.4942 73.1765 13.1323 72.9649 13.6302 73.2443C13.6302 73.2443 14.8856 73.8703 15.8278 74.1622C22.0726 76.0669 28.8499 74.0648 34.6219 73.2911C44.9896 71.8882 55.3215 70.2211 65.3122 67.2688L65.862 67.1069L66.435 67.3959L66.1372 67.9676C53.5566 72.2162 40.4292 74.3455 26.8942 76.2727C25.973 76.4032 25.0545 76.5246 24.1311 76.6181C19.0613 77.1249 13.0728 76.7466 9.89874 72.2197C6.23358 66.9931 6.37556 59.5495 7.26199 52.9256C7.62147 50.2391 8.32286 47.5965 9.53036 45.1829C9.69879 44.8532 9.8558 44.5242 10.2008 44.6898L10.3429 45.105C10.3429 45.105 9.88873 45.5838 10.2434 45.2006C10.1297 45.3376 10.1639 45.3357 10.1664 45.3252L10.1647 45.3241Z" fill="white"/>
<path id="Vector_14" fill-rule="evenodd" clip-rule="evenodd" d="M37.598 49.8681C40.1075 49.4328 42.6388 49.1434 45.1812 48.9887C45.8337 48.9495 46.4813 48.9155 47.1342 48.895C55.4128 48.6023 63.7787 49.4789 70.8885 53.1494L71.3338 54.1481L70.4053 54.4541C70.2339 54.374 70.061 54.2926 69.8869 54.213C61.6548 50.4427 51.8914 50.3247 42.9787 50.9197C32.0189 51.654 20.6766 54.7132 15.2727 64.508C14.892 65.1954 14.5175 66.1192 14.5175 66.1192C14.1904 66.9856 14.5544 66.4855 14.2677 66.2518L14.3791 66.6725C14.3791 66.6725 13.0815 67.7473 14.2572 65.0197C17.2636 58.0692 24.2615 53.3854 31.51 51.273C33.5109 50.6912 35.5463 50.23 37.5966 49.8683L37.598 49.8681Z" fill="white"/>
<path id="Vector_15" fill-rule="evenodd" clip-rule="evenodd" d="M25.799 54.9487C25.7198 55.1414 25.7802 54.8599 25.7731 55.1419C25.7461 56.5737 25.6744 55.6434 25.9355 56.8594L26.1768 57.6916C26.3223 58.086 26.1745 57.7352 26.396 58.224L26.8016 58.9447C27.0212 59.2782 26.8196 59.0048 27.1312 59.3939L27.6913 59.9803C28.3789 60.5871 28.0588 60.2874 28.31 60.4598C33.0825 63.7025 39.6102 63.4816 44.9619 63.9941C51.8183 64.6431 58.8036 64.7261 65.2779 62.6084L66.1907 63.0496L65.7479 63.9612C56.2848 67.3992 45.5696 66.5173 36.0044 65.0867C36.0044 65.0867 32.6711 64.5321 30.3742 63.4779C29.782 63.2025 29.2048 62.8984 28.6575 62.5516C26.1686 60.9803 24.6266 58.1206 25.0696 54.9685L25.3931 54.4757L25.3762 54.0439C25.3762 54.0439 26.2971 53.8155 25.8148 54.9084C25.7864 54.9668 25.7978 54.9503 25.8006 54.9498L25.799 54.9487Z" fill="white"/>
<path id="Vector_16" fill-rule="evenodd" clip-rule="evenodd" d="M71.3021 66.0861C71.3021 66.0861 71.7198 65.5807 71.9303 66.6992C74.1834 79.1276 78.4261 91.2974 81.8653 103.716C86.7718 121.486 91.5838 139.292 97.3192 156.762C98.8685 161.527 100.163 166.395 101.94 171.08L101.962 172.175L101.718 172.911L101.037 172.535C100.728 172.199 100.351 171.777 100.351 171.777C97.9831 165.417 96.2674 158.816 94.2667 152.399C85.8924 125.434 79.0334 97.8523 72.2233 70.8813C71.8488 69.3862 71.6738 67.815 71.2601 66.3743L71.343 66.4992C71.3299 66.3618 71.1988 65.9922 71.3048 66.0856L71.3021 66.0861Z" fill="white"/>
<path id="Vector_17" fill-rule="evenodd" clip-rule="evenodd" d="M86.7437 64.0792C86.7437 64.0792 87.0806 66.2406 87.4018 67.9526C91.2 88.1761 95.7142 108.12 100.393 127.794C103.555 141.042 107.144 154.136 111.933 166.899L112.298 168.73L112.415 169.343L112.126 170.208L111.328 169.771C111.108 169.419 110.888 169.061 110.669 168.704C109.375 166.593 108.732 164.158 107.905 161.801C106.472 157.698 105.149 153.546 103.915 149.379C103.82 149.062 103.662 148.504 103.57 148.182C98.2878 129.657 94.8125 111.075 91.0049 92.3824C89.1807 83.3515 87.4719 74.1531 86.2278 65.1536C86.089 64.162 86.0621 62.6621 86.0614 62.6579C86.0578 62.5419 86.0531 62.4996 86.0514 62.4898L86.049 62.4125C85.9964 61.8215 85.9708 61.9758 85.9708 61.9758L86.1135 61.5831C86.1135 61.5831 86.5662 61.0959 86.6723 62.6204C86.7104 63.1464 86.7345 63.9397 86.7345 63.9397C86.7401 64.0107 86.7401 64.0107 86.7448 64.0776L86.7437 64.0792Z" fill="white"/>
<path id="Vector_18" fill-rule="evenodd" clip-rule="evenodd" d="M85.9358 122.589C85.1503 122.802 85.6398 122.681 85.2747 122.878C84.3572 123.366 84.4088 123.453 83.6957 123.829C80.7578 125.304 77.8133 126.775 74.8888 128.277L74.6484 128.398C65.6471 132.677 56.8565 137.393 48.6707 142.101C47.8073 142.594 46.4726 143.245 46.4664 143.25C45.7597 143.662 46.1223 143.588 46.1317 143.359L45.842 143.663C45.842 143.663 44.5865 143.607 46.6136 142.441C48.8952 141.128 49.0386 141.004 49.5768 140.657C57.2665 135.679 65.2686 131.191 73.4235 127.026C73.4235 127.026 75.1995 126.146 77.0197 125.287C77.0197 125.287 79.4588 124.202 81.1346 123.51C81.9707 123.162 83.2169 122.668 83.2169 122.668C85.2486 121.728 85.248 121.564 86.0279 121.52L86.589 122C86.589 122 85.8129 122.619 85.9388 122.59L85.9358 122.589Z" fill="white"/>
<path id="Vector_19" fill-rule="evenodd" clip-rule="evenodd" d="M151.041 100.651C151.524 100.568 152.018 100.49 152.508 100.412L153.105 100.824L152.687 101.411C146.369 102.746 140.231 104.563 133.898 106.167C122.244 109.127 110.84 112.937 99.7656 117.157C99.294 117.337 98.5989 117.636 98.5919 117.638C97.6843 118.061 98.1461 118.003 98.169 117.752L97.8628 118.045C97.8628 118.045 95.7158 118.124 99.962 116.348C105.786 113.911 110.755 111.536 116.552 109.475C122.249 107.447 127.963 105.692 133.937 104.303C134.094 104.265 134.252 104.228 134.411 104.189C134.879 104.081 135.354 103.971 135.825 103.868C140.902 102.712 145.948 101.55 151.043 100.653L151.041 100.651Z" fill="white"/>
<path id="Vector_20" fill-rule="evenodd" clip-rule="evenodd" d="M41.6753 134.29C41.6922 134.031 41.2491 133.655 41.6753 134.29V134.29ZM83.225 111.225C84.1186 112.869 83.5621 112.616 83.3026 112.75C79.4071 114.74 75.262 116.204 71.298 117.955C61.1396 122.447 51.1713 127.388 42.3232 133.928C42.129 134.074 41.91 134.234 41.7167 134.361C41.5323 134.48 41.6415 134.399 41.6415 134.399C41.6415 134.399 41.0374 134.812 41.0842 134.238C41.111 133.817 41.6372 133.684 41.6372 133.684C52.3231 124.84 65.6633 118.869 77.6628 113.539C79.4214 112.755 81.1684 111.929 82.8623 111.001C82.8623 111.001 83.0905 111.085 83.2253 111.226L83.225 111.225Z" fill="white"/>
<path id="Vector_21" fill-rule="evenodd" clip-rule="evenodd" d="M95.241 107.514C95.241 107.514 94.6571 107.188 95.241 107.514V107.514ZM144.552 90.3059C146.753 89.9259 148.991 89.6947 151.183 89.2631L152.052 89.015C152.45 88.8559 152.432 88.8361 152.432 88.8361L153.036 88.9656L152.901 89.5656C152.149 90.0921 151.885 90.0818 151.541 90.1866C148.426 91.1421 144.989 91.6458 141.555 92.7061L138.892 93.5362C124.991 97.4353 111.032 101.46 97.6939 106.755C96.6895 107.152 95.6719 107.596 95.6552 107.599C94.6913 108.086 95.2411 107.964 95.2816 107.627C95.2816 107.627 94.7636 108.087 94.6898 107.676C94.6898 107.676 95.98 106.752 96.9173 106.342C111.28 100.077 126.226 95.0124 141.321 90.9769C142.385 90.7042 143.466 90.4962 144.55 90.3062L144.552 90.3059Z" fill="white"/>
</g>
</g>
<defs>
<clipPath id="clip0_142:709">
<rect width="143.366" height="171.599" fill="white" transform="translate(0 25.2881) rotate(-10.1595)"/>
</clipPath>
</defs>
</svg>
