<svg width="127" height="61" viewBox="0 0 127 61" fill="none" xmlns="http://www.w3.org/2000/svg">
<path d="M6.7306 37.3163H0.114078V34.1792H17.0546V37.3163H10.4381V54.1428H6.7306V37.3163ZM38.9451 51.0342V54.1428H23.9724V34.1792H38.5459V37.2878H27.6799V42.4784H37.3195V45.5299H27.6799V51.0342H38.9451ZM59.5678 54.1428L54.1491 46.5566L48.7875 54.1428H44.5666L51.9817 43.9614L44.9659 34.1792H49.1582L54.2632 41.2805L59.3112 34.1792H63.3324L56.3451 43.8188L63.8458 54.1428H59.5678ZM74.0867 37.3163H67.4702V34.1792H84.4107V37.3163H77.7942V54.1428H74.0867V37.3163ZM91.3285 34.1792H95.036V54.1428H91.3285V34.1792ZM104.571 34.1792H108.279V51.0057H118.717V54.1428H104.571V34.1792Z" fill="#34373C"/>
<path d="M36.0776 27.1228C36.0776 27.759 36.2463 28.0771 36.5837 28.0771C36.7957 28.0771 37.4608 27.5276 38.5789 26.4288C39.7066 25.3204 40.6031 24.3999 41.2681 23.6673V25.2866C39.3693 27.1566 38.097 28.3614 37.4512 28.9012C36.2752 29.8747 35.268 30.3807 34.4294 30.4193C34.0053 30.4193 33.6872 30.2313 33.4752 29.8554C33.2631 29.4699 33.1571 28.9783 33.1571 28.3807C33.1571 27.7831 33.427 26.3806 33.9667 24.1733C34.5065 21.9661 34.8631 20.6311 35.0366 20.1684C35.2198 19.7058 35.3692 19.3829 35.4849 19.1997C35.6005 19.0166 35.7451 18.872 35.9186 18.766C36.0921 18.6599 36.2415 18.578 36.3668 18.5202C36.5017 18.4527 36.7042 18.4045 36.974 18.3756C37.35 18.3467 37.8126 18.3322 38.362 18.3322C36.8391 23.2095 36.0776 26.1397 36.0776 27.1228ZM38.5644 14.4863C37.8801 14.4863 37.5379 14.1393 37.5379 13.4454C37.5379 12.9634 37.7162 12.5008 38.0729 12.0574C38.4391 11.6043 38.8681 11.3778 39.3597 11.3778C39.8512 11.3778 40.2175 11.4742 40.4585 11.667C40.6994 11.8598 40.8199 12.1538 40.8199 12.5489C40.8199 12.9345 40.5886 13.3538 40.1259 13.8068C39.6729 14.2598 39.1524 14.4863 38.5644 14.4863ZM47.355 26.5589C46.314 27.7734 45.2682 28.7229 44.2176 29.4072C43.167 30.0819 42.3766 30.4193 41.8465 30.4193C41.326 30.4193 40.926 30.3181 40.6464 30.1157C40.3669 29.9229 40.1597 29.6626 40.0247 29.3349C39.7934 28.7373 39.6777 28.0048 39.6777 27.1373C39.6777 26.2698 39.9139 25.2673 40.3862 24.13C40.8585 22.983 41.4609 21.9516 42.1935 21.0359C42.926 20.1202 43.7598 19.3636 44.6947 18.766C45.6393 18.1587 46.4731 17.8551 47.196 17.8551C47.9189 17.8551 48.6225 17.9563 49.3069 18.1587L51.2298 11.2911C51.4997 10.1826 51.7648 9.53682 52.025 9.35368C52.3817 9.09344 52.7431 8.95367 53.1094 8.9344C53.4853 8.90548 53.8853 8.89102 54.3094 8.89102H54.8155C54.7769 9.21874 54.6082 9.88864 54.3094 10.9007C53.7118 12.6839 52.8829 15.4984 51.8226 19.3443C50.772 23.1805 50.2467 25.4698 50.2467 26.212C50.2467 26.5686 50.2804 26.8096 50.3479 26.9349C50.4154 27.0602 50.5407 27.1228 50.7238 27.1228C50.9166 27.1228 51.3069 26.8433 51.8949 26.2842C52.4925 25.7252 53.3648 24.8432 54.5118 23.6384V25.2577C54.3769 25.3927 54.1263 25.6433 53.76 26.0095C53.4034 26.3758 53.1383 26.6457 52.9648 26.8192L52.1985 27.571C51.8708 27.9084 51.6058 28.1638 51.4033 28.3373C51.2106 28.5108 50.9696 28.7277 50.6804 28.9879C50.3913 29.2482 50.1503 29.4506 49.9575 29.5952C49.7647 29.7301 49.5575 29.8699 49.3358 30.0145C48.9213 30.2843 48.5743 30.4193 48.2948 30.4193C47.5044 30.4193 47.1092 29.7783 47.1092 28.4963C47.1092 27.8795 47.1912 27.2337 47.355 26.5589ZM49.0322 19.4311C48.9936 19.2961 48.8201 19.1708 48.5117 19.0551C48.2129 18.9298 47.9334 18.8672 47.6731 18.8672C46.8442 18.8672 46.0393 19.2479 45.2586 20.0094C44.4779 20.7708 43.861 21.6962 43.4079 22.7854C42.9549 23.8649 42.7284 24.8963 42.7284 25.8794C42.7284 27.1035 43.1236 27.7156 43.914 27.7156C44.5309 27.7156 45.302 27.3686 46.2273 26.6746C47.1526 25.971 47.6635 25.4216 47.7599 25.0264L49.0322 19.4311ZM57.1288 21.8311C57.8613 22.7757 58.671 23.248 59.5578 23.248C60.1168 23.248 60.5988 22.9733 61.0036 22.4239C61.4181 21.8745 61.6253 21.2962 61.6253 20.6889C61.6253 20.0817 61.5096 19.6768 61.2783 19.4744C61.0566 19.2624 60.7289 19.1563 60.2951 19.1563C59.871 19.1563 59.471 19.2527 59.0951 19.4455C58.7288 19.6383 58.4156 19.8793 58.1553 20.1684C57.6541 20.7371 57.3119 21.2913 57.1288 21.8311ZM65.0663 23.6673V25.2577C63.5338 26.9445 62.1651 28.2265 60.9602 29.1036C59.7554 29.9807 58.6083 30.4193 57.5192 30.4193C55.3408 30.4193 53.9817 29.7108 53.4419 28.2939C53.2395 27.7349 53.1383 27.0602 53.1383 26.2698C53.1383 24.8625 53.4323 23.5227 54.0203 22.2504C54.6082 20.9684 55.4516 19.9178 56.5505 19.0985C57.6589 18.2696 58.8879 17.8551 60.2373 17.8551C62.5121 17.8551 63.6494 18.7033 63.6494 20.3998C63.6494 21.4986 63.206 22.4576 62.3193 23.2769C61.4325 24.0866 60.4349 24.4914 59.3264 24.4914C58.883 24.4914 58.4204 24.3613 57.9384 24.1011C57.4565 23.8408 57.0469 23.4504 56.7095 22.9299C56.295 23.7974 56.0878 24.6456 56.0878 25.4746C56.0878 27.7011 56.8975 28.8144 58.5168 28.8144C58.9409 28.8144 59.4614 28.612 60.0783 28.2072C60.7048 27.8024 61.2542 27.3782 61.7265 26.9349C62.2084 26.4818 62.8157 25.8891 63.5482 25.1565C64.2808 24.4143 64.7868 23.9179 65.0663 23.6673ZM65.3844 30.4193C64.2278 30.4193 63.5145 29.6048 63.2446 27.9759C63.1868 27.5807 63.1579 27.171 63.1579 26.7469C63.1579 25.6963 63.4181 24.636 63.9386 23.5661C64.4591 22.4962 65.1434 21.542 65.9917 20.7034C66.8495 19.8648 67.8712 19.1804 69.0568 18.6503C70.252 18.1202 71.4713 17.8551 72.7147 17.8551C73.322 17.8551 74.1316 18.0141 75.1437 18.3322C75.1341 18.3997 75.0377 18.8431 74.8545 19.6624C74.6714 20.472 74.4883 21.301 74.3051 22.1492C73.8039 24.4721 73.5533 25.9131 73.5533 26.4722C73.5533 27.0312 73.6979 27.3108 73.9871 27.3108C74.6232 27.3108 76.0979 26.0866 78.4113 23.6384V25.2577C76.9462 26.771 75.5485 28.0096 74.2184 28.9735C72.8979 29.9373 72.0159 30.4193 71.5725 30.4193C70.84 30.4193 70.4737 29.7879 70.4737 28.5253C70.4737 28.1108 70.5123 27.6433 70.5894 27.1228C69.8954 28.0289 69.0857 28.8048 68.1604 29.4506C67.2447 30.0964 66.3194 30.4193 65.3844 30.4193ZM66.2375 25.9372C66.2375 27.3831 66.7098 28.106 67.6544 28.106C68.0592 28.106 68.5556 27.8939 69.1436 27.4698C69.7412 27.0457 70.2809 26.5782 70.7629 26.0674L72.4256 18.9539C71.3846 18.9539 70.3773 19.325 69.4038 20.0672C68.4303 20.8094 67.6592 21.7203 67.0905 22.7998C66.5218 23.8794 66.2375 24.9252 66.2375 25.9372ZM86.4356 9.51272C85.7608 9.51272 85.1006 10.4525 84.4548 12.3321C83.8186 14.2116 83.0861 17.1226 82.2571 21.0648C82.9801 20.3226 83.6596 19.4311 84.2957 18.3901C84.9319 17.3394 85.4428 16.3225 85.8283 15.3394C86.6476 13.267 87.0573 11.7778 87.0573 10.8718C87.0573 9.96575 86.85 9.51272 86.4356 9.51272ZM79.2354 30.4193C78.898 30.4193 78.6667 30.3325 78.5414 30.159C78.4161 29.9855 78.3197 29.841 78.2522 29.7253C78.1847 29.6 78.1317 29.4361 78.0932 29.2337C78.0546 29.0313 78.0209 28.8578 77.992 28.7132C77.9727 28.5686 77.9582 28.3759 77.9486 28.1349C77.939 27.8843 77.9341 27.6963 77.9341 27.571V27.0072C77.9341 25.1469 78.1896 23.089 78.7004 20.8335C79.2209 18.578 79.8812 16.496 80.6812 14.5876C81.4909 12.6791 82.4355 11.079 83.515 9.78743C84.5946 8.49583 85.6452 7.85003 86.6669 7.85003C87.2934 7.85003 87.785 8.0669 88.1416 8.50065C88.5079 8.92476 88.691 9.56092 88.691 10.4091C88.691 11.2477 88.5609 12.1923 88.3007 13.2429C88.0501 14.2839 87.7223 15.243 87.3175 16.1201C86.9127 16.9876 86.4645 17.8358 85.9729 18.6648C85.4813 19.4841 84.9897 20.207 84.4982 20.8335C83.4957 22.1058 82.715 23.0022 82.1559 23.5227L81.78 23.8986C81.2113 25.4023 80.927 26.5156 80.927 27.2385C80.927 27.9518 81.0957 28.3084 81.433 28.3084C81.674 28.3084 82.3343 27.7783 83.4138 26.718C84.4933 25.6577 85.4813 24.6312 86.3777 23.6384V25.2577C84.7199 27.0409 83.3463 28.3325 82.2571 29.1325C81.1776 29.9229 80.1703 30.3518 79.2354 30.4193Z" fill="#35A1BF"/>
</svg>
