<svg width="221" height="274" viewBox="0 0 221 274" fill="none" xmlns="http://www.w3.org/2000/svg">
<g id="gift" clip-path="url(#clip0_142:732)">
<g id="&#208;&#161;&#208;&#187;&#208;&#190;&#208;&#185;_x0020_1">
<path id="Vector" fill-rule="evenodd" clip-rule="evenodd" d="M169.521 127.677C180.385 132.431 191.102 137.774 200.3 145.204C201.559 146.335 202.777 147.505 203.956 148.719L204.222 149.33L204.007 149.939L203.425 150.191C202.374 149.837 202.164 149.456 201.746 149.121C200.824 148.384 199.885 147.671 198.927 146.978C198.927 146.978 196.363 144.943 194.191 143.43C182.818 135.503 169.882 130.066 156.946 124.903C130.689 114.425 103.287 107.543 75.1416 102.126C73.3517 101.781 71.5571 101.457 69.7547 101.186C69.6706 101.172 69.6678 101.178 69.631 101.172C68.5915 101.096 67.4997 101.038 66.6118 100.6C66.596 100.286 66.5426 100.286 66.6252 100.055C66.6252 100.055 67.3823 99.3978 67.2044 99.3538C67.451 99.3804 67.1092 99.3688 67.5636 99.3638C68.3422 99.355 68.8825 99.2896 68.8825 99.2896C72.5645 99.4377 76.1328 100.348 79.7515 101.012C110.118 106.611 139.829 114.885 167.963 127C168.483 127.224 169.004 127.451 169.524 127.678L169.521 127.677Z" fill="white"/>
<path id="Vector_2" fill-rule="evenodd" clip-rule="evenodd" d="M66.7766 100.153C66.7766 100.153 67.565 100.416 67.5813 100.546C67.7455 101.932 67.6712 102.453 67.6123 103.243C67.3647 106.617 66.7203 109.973 66.3813 113.374C65.9947 117.281 65.3108 121.295 65.7381 125.017C65.7934 125.485 65.9634 126.178 65.9634 126.178C66.012 126.34 65.9353 126.11 66.0324 126.395L66.3375 127.034C66.4252 127.176 66.2908 126.98 66.4554 127.212L66.8394 127.67C66.968 127.802 66.8022 127.643 67.0141 127.844C69.5327 130.109 73.67 129.97 76.9755 130.642C83.0991 131.9 89.1619 133.481 95.2293 135.019C95.2293 135.019 96.3274 135.459 97.1731 135.856L97.8111 136.159L98.3801 136.925L97.5168 137.328C96.4696 137.273 95.0708 137.198 95.0708 137.198C88.5755 135.526 82.0894 133.792 75.533 132.46C74.7852 132.315 74.6768 132.304 74.2775 132.238C70.211 131.599 65.2442 131.289 64.0127 126.584C63.5 124.63 63.6998 122.543 63.8417 120.49C63.9822 118.434 64.1799 116.379 64.3954 114.33C64.8621 109.893 66.0097 105.429 65.9448 101.083C65.9369 100.561 66.5454 99.4637 66.8953 99.7614L67.0186 100.018C67.0186 100.018 66.7136 100.136 66.7797 100.153L66.7766 100.153Z" fill="white"/>
<path id="Vector_3" fill-rule="evenodd" clip-rule="evenodd" d="M122.622 112.03L121.214 113.29C117.044 115.746 113.141 118.901 109.84 122.148C101.154 130.701 95.4607 141.765 91.1172 153.329L90.5688 153.599C90.5688 153.599 90.3927 153.232 90.3047 153.048C94.0239 141.493 99.0329 129.98 107.498 121.153C110.952 117.551 114.76 114.712 119.175 112.359C119.715 112.069 120.358 111.731 120.358 111.731C121.148 111.44 122.261 111.162 122.261 111.162C122.503 111.262 122.794 111.348 122.9 111.525C122.9 111.525 122.524 112.003 122.621 112.028L122.622 112.03Z" fill="white"/>
<path id="Vector_4" fill-rule="evenodd" clip-rule="evenodd" d="M102.268 147.97C102.268 147.97 102.358 147.942 102.268 147.97V147.97ZM102.034 148.07C102.034 148.07 102.055 148.059 102.034 148.07V148.07ZM102.025 148.077C102.025 148.077 102.035 148.07 102.025 148.077V148.077ZM102.015 148.081C102.015 148.081 102.019 148.08 102.015 148.081V148.081ZM101.88 148.16C101.88 148.16 101.886 148.157 101.88 148.16V148.16ZM101.868 148.166C101.868 148.166 101.883 148.155 101.868 148.166V148.166ZM101.868 148.23C101.868 148.23 100.715 148.991 100.291 149.232C98.1319 150.451 95.9837 151.719 93.8053 152.853C93.6868 152.914 93.9577 152.745 93.5569 153.009C92.9512 153.406 92.3631 153.841 91.7057 154.139L90.7422 153.826L90.5475 153.617L91.0324 152.782C91.3167 152.642 91.082 152.77 91.363 152.592C92.0915 152.13 92.162 151.933 93.0621 151.372C95.1819 150.099 97.3619 148.913 99.4522 147.606C99.4522 147.606 100.605 146.455 101.728 146.083C101.728 146.083 102.131 145.901 102.46 145.907C103.44 145.924 104.501 147.045 104.501 147.045C105.001 147.941 105.298 148.948 105.633 149.904C105.838 150.491 105.95 150.658 106.121 151.033C107.542 154.173 109.244 157.183 111.189 160.031L111.336 160.637L111.043 161.165L110.467 161.305C109.744 160.913 109.589 160.618 109.32 160.296C107.039 157.555 104.97 154.646 103.258 151.447C102.446 149.935 102.425 149.481 102.004 148.752C102.004 148.752 101.905 148.337 101.867 148.231L101.868 148.23Z" fill="white"/>
<path id="Vector_5" fill-rule="evenodd" clip-rule="evenodd" d="M128.385 114.831C128.385 114.831 128.586 114.707 128.281 115.134C122.768 122.9 118.625 131.854 115.471 140.407C113.558 145.592 111.981 150.929 111.705 156.448C111.518 157.922 111.365 159.401 111.117 160.869L110.632 161.406L110.247 160.934C110.251 159.447 110.155 157.954 110.086 156.459C110.086 156.459 110.192 153.437 110.533 151.469C110.59 151.146 110.647 150.827 110.708 150.505C112.871 139.211 117.674 128.226 123.502 118.775C123.502 118.775 124.704 117.012 125.411 116.116C126.024 115.34 126.666 114.585 127.346 113.864L128.219 114.205L128.066 113.964C128.066 113.964 128.683 113.283 128.398 114.644C128.386 114.698 128.345 114.862 128.383 114.832L128.385 114.831Z" fill="white"/>
<path id="Vector_6" fill-rule="evenodd" clip-rule="evenodd" d="M145.23 119.026L145.79 119.859C145.922 120.158 145.792 119.64 146.099 120.817C147.275 125.274 147.977 129.177 148.487 133.242L148.507 133.412C149.293 141.382 148.302 149.48 145.967 157.252C144.845 160.985 143.477 164.636 142.004 168.243L141.148 169.382L140.722 169.63L140.582 169.155C140.617 168.641 140.665 167.92 140.665 167.92C140.811 167.522 140.957 167.125 141.102 166.726C144.878 156.276 147.473 145.131 146.155 133.898C146.155 133.898 145.917 131.584 145.636 129.577C145.341 127.471 145.003 125.368 144.68 123.273C144.613 122.845 144.271 121.663 144.09 120.54C144.09 120.54 144.087 119.85 144.29 119.152C144.29 119.152 144.592 118.794 144.88 118.75C144.88 118.75 145.195 119.085 145.232 119.028L145.23 119.026Z" fill="white"/>
<path id="Vector_7" fill-rule="evenodd" clip-rule="evenodd" d="M153.645 164.845C151.547 161.545 153.081 164.222 153.081 164.222C152.174 164.659 151.102 165.874 150.479 166.325C148.59 167.686 146.547 168.865 144.41 169.726C143.792 169.974 143.797 169.99 143.797 169.99C142.981 170.213 141.737 170.417 141.737 170.417C141.315 170.162 140.727 169.878 140.789 169.5C140.789 169.5 141.429 168.595 141.804 168.432C141.88 168.398 141.956 168.364 142.029 168.33C142.413 168.152 142.963 167.86 142.963 167.86C145.387 166.984 147.756 165.929 149.9 164.459C150.458 164.077 150.009 164.406 150.275 164.181C150.275 164.181 150.942 163.655 151.603 163C151.752 162.851 152.645 162.012 153.593 162.121C155.03 162.283 155.781 163.503 156.642 164.765C157.439 165.936 158.027 166.693 158.689 167.661L158.778 167.79C159.702 169.2 160.6 170.627 161.497 172.056L161.499 172.063C161.56 173.02 161.542 173.018 161.539 173.974L160.387 173.505L159.78 173.209C159.165 172.356 158.548 171.502 157.927 170.649C156.538 168.752 155.356 166.945 153.702 164.929C153.682 164.904 153.682 164.898 153.649 164.842L153.645 164.845Z" fill="white"/>
<path id="Vector_8" fill-rule="evenodd" clip-rule="evenodd" d="M152.355 121.791C152.355 121.791 153.041 122.394 153.629 122.986C153.629 122.986 154.244 123.856 154.655 124.46C161.239 134.136 163.109 146.977 162.574 158.586C162.477 160.661 162.314 162.731 162.1 164.795C161.792 167.718 161.851 170.705 161.313 173.585L160.823 173.939L160.47 173.448C160.809 171.002 160.583 168.546 160.761 166.028C161.562 154.337 161.121 142.095 155.752 131.579C155.522 131.135 154.367 128.908 153.231 127.023C152.714 126.162 152.186 125.31 151.65 124.461C151.65 124.461 150.972 123.389 150.761 122.334L151.188 121.583L150.926 121.469C150.926 121.469 150.812 120.607 152.132 121.5C152.132 121.5 152.268 121.653 152.352 121.79L152.355 121.791Z" fill="white"/>
<path id="Vector_9" fill-rule="evenodd" clip-rule="evenodd" d="M166.85 161.676C166.999 161.744 167.171 161.819 167.171 161.819C171.792 164.229 176.209 167.026 181.042 169.545C182.122 170.103 183.218 170.644 184.412 170.874L185.281 170.946C187.19 170.761 186.004 170.977 186.953 170.199C186.953 170.199 189.002 167.318 190.27 164.834C191.484 162.486 192.966 160.286 194.599 158.202C195.887 156.559 197.393 155.008 198.863 153.452C198.977 153.33 198.978 153.331 199.094 153.212C200.319 151.952 201.554 150.708 202.774 149.444C203.136 149.295 203.443 149.163 203.443 149.163L204.5 149.002L204.448 150.07C204.232 150.778 203.947 151.103 203.594 151.514C201.232 154.256 198.799 156.934 196.599 159.785C194.66 162.314 192.815 165.009 191.192 167.927C189.672 170.642 187.533 173.514 183.848 172.78C181.726 172.355 179.83 171.198 177.908 170.239C173.921 168.25 170.09 165.85 166.18 163.879C166.18 163.879 164.085 162.608 162.115 161.862L161.835 161.566C161.136 160.809 161.193 160.948 161.193 160.948L160.991 160.746C160.991 160.746 161.709 160.302 162.459 160.131C162.459 160.131 163.763 160.433 164.665 160.775C165.403 161.053 166.128 161.357 166.851 161.675L166.85 161.676Z" fill="white"/>
<path id="Vector_10" fill-rule="evenodd" clip-rule="evenodd" d="M73.2788 132.906C73.2788 132.906 72.7393 136.073 72.2972 139.018C70.1357 153.329 68.4548 167.823 65.3841 182.797C62.2836 197.933 58.1728 212.95 55.05 227.984L54.4696 228.386C54.4696 228.386 54.2082 227.994 54.0786 227.797C56.7402 212.616 60.3143 197.673 63.3116 182.374C65.2136 173.125 66.5254 163.587 68.119 154.257C69.3753 147.094 70.4814 139.818 71.9112 132.805C71.968 132.548 71.6951 132.978 72.311 131.926C73.3506 130.149 72.9143 131.506 72.9143 131.506L72.8243 131.236C72.8243 131.236 73.1045 131.077 73.3199 131.214C73.714 131.47 73.6358 132.238 73.6358 132.238C73.5274 132.469 73.3268 132.817 73.3359 132.799C73.3074 132.854 73.3074 132.854 73.2806 132.905L73.2788 132.906Z" fill="white"/>
<path id="Vector_11" fill-rule="evenodd" clip-rule="evenodd" d="M184.099 172.082C184.099 172.082 184.109 172.07 184.099 172.082V172.082ZM184.097 172.087L184.083 172.222C184.083 172.222 184.119 172.054 184.097 172.087ZM184.368 172.374C184.368 172.374 184.091 172.456 184.366 172.379C184.366 172.379 184.418 172.351 184.368 172.374ZM183.749 173.448C183.32 174.192 182.908 174.943 182.504 175.698C182.504 175.698 180.524 178.41 179.107 180.372C165.819 198.793 154.81 218.844 143.303 238.484L143.115 238.804C139.687 244.579 136.292 250.347 132.91 256.101L132.496 256.432L131.994 256.387L131.701 255.986L131.766 255.466C134.819 249.755 137.893 244.044 141.008 238.354L141.321 237.782C142.545 235.582 143.773 233.384 145.006 231.19L145.108 231.007C147.123 227.512 149.152 224.026 151.196 220.547L151.578 219.901C153.367 216.881 155.17 213.87 156.992 210.871C164.732 198.105 170.188 189.312 177.603 179.271C178.706 177.775 179.844 176.294 180.991 174.827C180.991 174.827 182.178 173.629 183.34 172.674C184.522 171.727 183.806 172.107 184.229 171.974C185.103 171.7 184.316 172.507 183.857 173.257C183.828 173.307 183.944 173.11 183.749 173.447L183.749 173.448Z" fill="white"/>
<path id="Vector_12" fill-rule="evenodd" clip-rule="evenodd" d="M132.202 255.511L132.999 256.885C132.698 257.46 132.28 257.84 132.28 257.84C131.247 258.051 130.187 257.917 129.138 257.842C128.904 257.827 129.205 257.831 128.459 257.818C123.324 257.719 118.245 257.301 113.262 256.101C99.1302 252.691 86.2385 244.679 73.6205 238.335C69.6901 236.356 65.7817 234.331 61.8591 232.369L61.5505 232.215C59.463 231.147 57.3906 230.069 55.274 229.022L55.1887 228.065L55.0554 228.322C55.0554 228.322 54.2876 228.117 55.7327 227.698C55.7327 227.698 57.8658 228.594 59.5405 229.372C60.7107 229.919 62.3096 230.664 62.3096 230.664C73.7603 236.133 85.1346 242.109 96.5193 247.313C106.143 251.713 116.236 254.75 127.282 254.991C128.759 255.027 130.267 255.323 131.645 255.077C131.645 255.077 132.072 255.471 132.201 255.513L132.202 255.511Z" fill="white"/>
<path id="Vector_13" fill-rule="evenodd" clip-rule="evenodd" d="M130.762 114.453C130.762 114.453 130.763 114.453 130.762 114.453V114.453ZM130.594 114.419C130.594 114.419 130.541 114.399 130.594 114.419V114.419ZM130.758 114.491C130.7 114.834 130.756 114.172 130.709 115.352C130.689 115.749 129.962 117.429 129.42 118.838C119.858 143.604 111.073 168.947 102.829 194.489L102.531 195.411C102.267 196.216 102.002 197.023 101.74 197.828C98.257 208.519 94.5863 219.122 91.3004 229.862C89.9277 234.352 88.7154 238.898 87.853 243.513L87.3493 244.518L86.7728 245.006C86.7728 245.006 86.5192 244.571 86.3918 244.355C86.3242 243.915 86.241 243.345 86.241 243.345C88.5033 230.369 93.3444 217.878 97.2819 205.619C98.3596 202.272 99.4423 198.927 100.53 195.585L100.775 194.834C108.228 172.366 116.208 149.958 124.616 128.241C126.262 124.011 127.973 119.829 129.658 115.563C129.757 115.316 130.169 113.711 130.748 113.991C131.073 114.147 130.726 114.57 130.759 114.491L130.758 114.491Z" fill="white"/>
<path id="Vector_14" fill-rule="evenodd" clip-rule="evenodd" d="M143.631 119.497C143.631 119.497 143.422 120.379 143.213 121.314C143.198 121.381 143.071 121.998 143.025 122.13C142.377 124.065 141.715 125.99 141.061 127.919L140.967 128.199C129.357 160.038 119.758 192.747 108.53 224.933C107.675 227.38 106.774 229.817 105.951 232.265C103.827 238.641 102.867 245.38 100.17 251.553L99.5759 251.792L99.3399 251.191C102.076 244.83 102.974 237.756 105.242 231.168C113.219 208.256 120.425 184.914 127.742 161.546C131.968 148.111 136.682 134.829 141.715 121.659C141.715 121.659 142.515 119.71 143.327 118.719C144.546 117.237 143.331 118.451 143.655 118.376C143.784 118.348 143.489 118.117 143.489 118.117C143.489 118.117 143.83 117.808 144.017 118.16C144.258 118.609 143.678 119.39 143.678 119.39C143.654 119.444 143.654 119.444 143.631 119.497Z" fill="white"/>
<path id="Vector_15" fill-rule="evenodd" clip-rule="evenodd" d="M119.33 142.901L118.806 144.114L118.532 144.366C118.404 144.304 118.276 144.24 118.147 144.181C118.021 144.123 117.895 144.065 117.767 144.009C116.642 143.513 115.483 143.09 114.278 142.819L113.789 142.69L113.694 141.88C114.006 141.203 113.95 141.483 114.351 141.467C114.351 141.467 116.359 141.603 117.829 142.033C118.436 142.211 119.321 142.527 119.321 142.527C119.322 142.654 119.326 142.777 119.331 142.902L119.33 142.901Z" fill="white"/>
<path id="Vector_16" fill-rule="evenodd" clip-rule="evenodd" d="M132.489 149.484L132.813 148.925C132.813 148.925 132.452 149.129 132.37 148.987C132.199 148.692 133.061 148.485 133.066 148.487C133.54 148.711 133.29 148.588 133.317 148.597C133.934 148.75 134.798 148.975 134.798 148.975C138.64 150.113 142.374 151.635 145.913 153.462L146.263 153.87L146.234 154.399L145.838 154.742C145.337 154.717 146.065 155.049 144.247 154.235C141.756 153.128 139.223 152.141 136.649 151.263C136.649 151.263 135.388 150.78 134.397 150.402C134.397 150.402 132.527 149.516 132.505 149.5C132.5 149.495 132.492 149.492 132.488 149.485L132.489 149.484Z" fill="white"/>
<path id="Vector_17" fill-rule="evenodd" clip-rule="evenodd" d="M135.501 102.817C133.927 102.318 132.232 102.204 130.606 102.462C130.387 102.496 130.711 102.424 130.23 102.535C130.085 102.569 130.305 102.508 129.988 102.6C129.731 102.674 129.902 102.613 129.6 102.732C129.481 102.777 128.887 103.096 128.887 103.096C128.678 103.23 128.954 103.045 128.699 103.222C128.699 103.222 128.215 103.613 128.198 103.629C127.978 103.828 128.2 103.613 127.962 103.854L127.698 104.153C127.565 104.32 127.731 104.103 127.567 104.324L127.355 104.646C127.249 104.827 127.378 104.596 127.251 104.831C127.251 104.831 127.001 105.391 127.012 105.362C126.873 105.723 126.968 105.453 126.88 105.752L126.785 106.136C126.71 106.52 126.758 106.24 126.72 106.555L126.688 106.96C126.677 107.357 126.676 107.068 126.689 107.399C126.689 107.399 126.921 109.517 127.855 111.165C127.965 111.514 128.27 112.179 128.212 112.103C128.972 113.877 128.06 113.137 128.06 113.137C128.06 113.137 128.561 112.796 128.471 113.145L127.739 113.377C127.454 113.396 127.839 113.662 127.146 113.037C126.642 112.576 126.237 112.146 126.237 112.146C124.321 109.089 123.768 104.811 126.728 102.17C129.865 99.3733 135.515 100.549 138.436 103.091C140.322 104.733 141.892 106.783 144.303 107.677L144.47 108.005C144.47 108.005 144.221 108.195 143.915 108.104C140.997 107.217 138.921 104.54 136.297 103.139C136.275 103.127 135.94 102.973 135.928 102.968C135.655 102.859 135.985 102.982 135.644 102.86C135.64 102.859 135.731 102.888 135.505 102.814L135.501 102.817Z" fill="white"/>
<path id="Vector_18" fill-rule="evenodd" clip-rule="evenodd" d="M144.455 118.197C144.908 117.612 145.524 116.736 145.524 116.736C145.642 116.641 145.762 116.545 145.88 116.453C146.349 116.075 146.811 115.684 147.261 115.283C148.603 114.088 149.98 112.93 151.092 111.45C151.141 111.387 151.454 110.879 151.454 110.879C151.626 110.532 151.496 110.897 151.636 110.426L151.709 109.716C151.677 109.393 151.717 109.679 151.663 109.408C151.617 109.177 151.413 108.717 151.401 108.692C151.133 108.184 151.376 108.551 150.951 108C150.951 108 146.492 104.062 141.61 104.181C140.576 104.208 139.708 104.09 138.803 104.124C137.755 104.162 137.964 103.73 137.964 103.73L137.682 103.684C137.682 103.684 138.258 102.61 138.749 102.56C139.529 102.485 140.312 102.53 141.092 102.491C141.191 102.484 140.769 102.516 141.513 102.45C145.166 102.153 148.947 103.135 151.744 105.68C153.339 107.132 154.479 109.247 153.759 111.363C152.72 114.406 149.811 116.425 146.885 118.465L144.872 119.075L144.198 118.963C144.198 118.963 144.296 118.396 144.455 118.195L144.455 118.197Z" fill="white"/>
<path id="Vector_19" fill-rule="evenodd" clip-rule="evenodd" d="M198.78 81.6025C205.216 84.4963 209.956 91.8658 206.529 99.5144C204.087 104.959 198.91 108.863 193.744 112.077C186.712 116.453 178.881 119.521 170.78 121.183C165.133 122.247 159.377 122.671 153.69 122.167L153.634 122.163C151.11 121.681 148.609 121.079 146.099 120.576L145.688 120.493L145.204 119.95L145.769 119.494C148.344 119.416 150.922 119.454 153.498 119.379C153.498 119.379 156.001 119.52 157.967 119.492C171.313 119.315 184.903 115.328 196.026 107.608C200.995 104.159 205.979 99.5816 205.552 93.5281C205.329 90.3736 203.616 87.3908 201.115 85.4108C194.39 80.0853 183.969 80.7266 175.862 83.4907C165.732 86.948 156.613 93.2311 148.856 100.72C147.902 101.505 146.954 102.323 146.069 103.164C145.75 103.469 146.286 103.284 145.361 103.682C145.161 103.758 144.879 103.719 144.86 103.51L144.909 103.228C144.909 103.228 144.943 102.393 145.667 101.488C146.236 100.772 146.835 100.088 147.434 99.4045L147.504 99.325C156.382 90.7149 166.818 83.4106 178.801 80.5154C185.303 78.9462 192.433 78.9461 198.412 81.4436C198.534 81.4968 198.657 81.5506 198.779 81.6038L198.78 81.6025Z" fill="white"/>
<path id="Vector_20" fill-rule="evenodd" clip-rule="evenodd" d="M150.216 105.564C150.216 105.564 149.589 105.819 149.795 105.296L149.673 104.827C149.819 104.52 149.404 105.038 150.403 103.795C150.403 103.795 155.468 99.828 159.37 97.6226C165.076 94.3935 171.288 91.8142 177.888 91.6292C180.794 91.5457 183.736 91.9378 186.514 92.8884C190.79 94.3513 194.752 97.8836 195.369 102.634L195.295 102.759C195.295 102.759 193.981 99.5931 192.06 97.9533C191.337 97.337 190.533 96.8184 189.685 96.3857C182.709 92.8421 174.261 93.881 168.223 95.937C162.258 97.9684 156.609 101.062 151.615 105.006L150.792 105.477C150.579 105.658 150.836 105.556 150.449 105.566L149.876 105.283C149.876 105.283 150.187 105.443 150.216 105.565L150.216 105.564Z" fill="white"/>
<path id="Vector_21" fill-rule="evenodd" clip-rule="evenodd" d="M187.541 94.2865L187.735 94.3083L187.796 94.6055L187.448 95.1124L187.763 95.1429L188.342 94.5625C188.376 94.6278 188.409 94.6957 188.442 94.7636C189.5 97.0143 189.47 99.7117 188.589 101.946C187.148 105.596 183.789 108.193 180.743 110.155C175.758 113.363 169.902 114.982 164.148 116.369C164.148 116.369 162.459 116.76 160.963 117.061C157.251 117.813 153.511 118.393 149.724 118.803C149.448 118.832 148.064 118.903 146.788 118.921C146.788 118.921 146.372 118.726 146.103 118.549L146.061 118.021L146.559 117.556C146.809 117.518 147.058 117.475 147.309 117.43C147.966 117.318 148.931 117.145 148.931 117.145C157.813 116.155 166.789 114.619 175.049 111.203C176.087 110.776 177.106 110.305 178.097 109.776C182.808 107.262 187.755 103.725 187.713 98.5037C187.703 97.3796 187.502 96.2147 187.031 95.2252L187.356 94.3539C187.461 94.29 187.422 94.3128 187.543 94.2845L187.541 94.2865Z" fill="white"/>
<path id="Vector_22" fill-rule="evenodd" clip-rule="evenodd" d="M125.432 107.682C125.432 107.682 126.309 107.406 126.834 107.781C126.834 107.781 126.936 108.177 126.797 108.321C126.797 108.321 126.109 108.84 126.259 108.806C126.13 108.854 126.131 108.858 126.131 108.858C124.384 109.541 122.353 108.585 120.779 108.082C119.563 107.692 118.376 107.211 117.225 106.659C116.749 106.431 116.281 106.19 115.815 105.943C109.993 102.805 104.406 98.8239 99.99 94.2316C95.8681 89.9419 93.0942 84.4569 92.7923 78.1874C92.3119 68.2876 95.2403 56.9727 105.163 54.9834C114.38 53.1357 123.987 61.5671 128.968 69.8742C129.554 70.8495 130.101 71.8476 130.616 72.8636C131.586 74.7885 132.414 76.7816 133.142 78.8088C133.929 80.9917 134.483 83.2777 135.013 85.5593L135.04 85.672C135.564 88.2048 135.997 90.7587 136.386 93.3167C136.411 93.4955 136.411 93.4955 136.438 93.6709C136.813 96.3464 137.144 99.0273 137.49 101.707L137.579 102.392L137.669 103.08L137.467 103.434L137.149 103.182C135.68 97.5667 134.329 91.903 132.529 86.3387C131.948 84.4167 131.31 82.5158 130.59 80.6449C130.59 80.6449 129.916 78.7159 129.252 77.1275C125.989 69.3117 120.947 61.6959 112.861 58.1666C108.746 56.366 103.674 56.1603 99.754 59.7297C95.9592 63.1827 94.7975 68.5969 94.4663 73.1892C94.1296 77.8432 94.4251 82.6277 96.5502 86.7067C100.535 94.3592 108.416 99.3518 116.012 103.801C118.578 105.292 121.289 106.46 124.236 107.258C124.236 107.258 125.305 107.648 125.433 107.682L125.432 107.682Z" fill="white"/>
<path id="Vector_23" fill-rule="evenodd" clip-rule="evenodd" d="M129.861 101.527C128.762 97.552 126.118 94.1256 124.186 90.5264C123.532 89.3075 122.86 88.1009 122.165 86.9086C122.165 86.9086 120.759 84.3882 119.483 82.4932C116.011 77.3396 111.641 72.5568 105.716 70.2508C104.357 69.7206 102.874 69.459 101.438 69.7037L100.353 69.9902C100.279 70.0279 100.375 69.9765 100.271 70.0308C99.3425 70.5318 98.4755 71.1254 97.538 71.6425C97.2575 71.7845 97.2507 71.3797 97.2507 71.3797L97.518 71.2854C97.518 71.2854 97.0654 71.4823 97.5597 71.1371C99.7605 69.591 102.299 68.3433 105.177 68.9858C113.69 70.8819 120.076 78.6418 124.214 85.4338C124.214 85.4338 124.946 86.7232 125.438 87.6527C125.438 87.6527 126.298 89.3757 126.666 90.2025C128.319 93.8766 130.422 97.5609 131.01 101.286L130.568 102.05C130.568 102.05 129.911 101.713 129.862 101.528L129.861 101.527Z" fill="white"/>
<path id="Vector_24" fill-rule="evenodd" clip-rule="evenodd" d="M109.7 71.5327C109.7 71.5327 109.709 71.514 109.7 71.5327V71.5327ZM109.732 71.5636C109.732 71.5636 109.731 71.5631 109.732 71.5636V71.5636ZM109.732 71.5636C109.732 71.5636 109.731 71.5631 109.732 71.5636V71.5636ZM109.732 71.5668C109.732 71.5668 109.726 71.5608 109.732 71.5668V71.5668ZM109.735 71.5679C109.735 71.5679 109.724 71.5572 109.735 71.5679V71.5679ZM109.734 71.5673C109.766 71.5982 109.741 71.5738 109.734 71.5673V71.5673ZM109.204 72.6074C108.816 72.984 109.388 71.9254 108.404 73.8875C104.919 80.8342 108.563 90.1748 112.706 95.5002C116.239 100.045 121.014 103.489 126.051 105.713L126.407 106.063L126.43 106.54L126.103 106.876C125.169 106.937 124.913 106.689 124.469 106.534C120.684 105.235 117.142 103.272 114.104 100.498L114.067 100.462C109.076 95.5049 105.965 88.5116 105.964 81.4273C105.965 78.2667 106.698 75.0395 108.555 72.5355C108.841 72.1485 109.453 71.7627 109.391 71.8123C109.84 71.4564 109.702 71.5232 109.702 71.5232L109.617 71.2843C109.617 71.2843 110.049 71.0308 110.125 71.4628C110.248 72.1631 109.088 72.7069 109.201 72.6063L109.204 72.6074Z" fill="white"/>
</g>
</g>
<defs>
<clipPath id="clip0_142:732">
<rect width="168.742" height="225.097" fill="white" transform="translate(89.9829) rotate(23.5626)"/>
</clipPath>
</defs>
</svg>
