<svg width="161" height="77" viewBox="0 0 161 77" fill="none" xmlns="http://www.w3.org/2000/svg">
<path d="M9.2626 46.76H0.910602V42.8H22.2946V46.76H13.9426V68H9.2626V46.76ZM49.9269 64.076V68H31.0269V42.8H49.4229V46.724H35.7069V53.276H47.8749V57.128H35.7069V64.076H49.9269ZM75.9588 68L69.1188 58.424L62.3508 68H57.0228L66.3828 55.148L57.5268 42.8H62.8188L69.2628 51.764L75.6348 42.8H80.7108L71.8908 54.968L81.3588 68H75.9588ZM94.2859 46.76H85.9339V42.8H107.318V46.76H98.9659V68H94.2859V46.76ZM116.05 42.8H120.73V68H116.05V42.8ZM132.766 42.8H137.446V64.04H150.622V68H132.766V42.8Z" fill="white"/>
<path d="M46.3072 34.3681C46.3072 35.1712 46.5201 35.5727 46.9459 35.5727C47.2136 35.5727 48.0531 34.8792 49.4645 33.4921C50.8881 32.0929 52.0196 30.931 52.8591 30.0063V32.0503C50.4622 34.4107 48.8562 35.9316 48.041 36.613C46.5566 37.8418 45.2851 38.4806 44.2266 38.5293C43.6913 38.5293 43.2898 38.292 43.0221 37.8175C42.7544 37.3308 42.6206 36.7103 42.6206 35.9559C42.6206 35.2016 42.9613 33.4313 43.6426 30.645C44.324 27.8588 44.7741 26.1737 44.9931 25.5896C45.2243 25.0056 45.4129 24.598 45.5589 24.3669C45.7049 24.1357 45.8874 23.9532 46.1064 23.8193C46.3254 23.6855 46.514 23.5821 46.6722 23.5091C46.8425 23.4239 47.098 23.3631 47.4387 23.3266C47.9132 23.2901 48.4972 23.2718 49.1908 23.2718C47.2684 29.4283 46.3072 33.1271 46.3072 34.3681ZM49.4463 18.4172C48.5824 18.4172 48.1505 17.9792 48.1505 17.1032C48.1505 16.4948 48.3756 15.9108 48.8258 15.3511C49.2881 14.7793 49.8295 14.4933 50.45 14.4933C51.0706 14.4933 51.5329 14.615 51.8371 14.8583C52.1413 15.1017 52.2933 15.4728 52.2933 15.9716C52.2933 16.4583 52.0013 16.9876 51.4173 17.5594C50.8455 18.1313 50.1885 18.4172 49.4463 18.4172ZM60.5426 33.6564C59.2285 35.1894 57.9084 36.3879 56.5822 37.2517C55.256 38.1034 54.2583 38.5293 53.5891 38.5293C52.9321 38.5293 52.4272 38.4015 52.0743 38.146C51.7215 37.9027 51.4599 37.5742 51.2896 37.1605C50.9976 36.4061 50.8516 35.4814 50.8516 34.3864C50.8516 33.2914 51.1497 32.026 51.7458 30.5903C52.342 29.1424 53.1025 27.8405 54.0271 26.6847C54.9518 25.5288 56.0043 24.5737 57.1845 23.8193C58.3769 23.0528 59.4293 22.6696 60.3418 22.6696C61.2544 22.6696 62.1425 22.7973 63.0064 23.0528L65.4337 14.3838C65.7744 12.9846 66.109 12.1694 66.4375 11.9383C66.8877 11.6097 67.3439 11.4333 67.8063 11.409C68.2808 11.3725 68.7857 11.3542 69.3211 11.3542H69.9599C69.9112 11.7679 69.6983 12.6135 69.3211 13.8911C68.5667 16.142 67.5204 19.6947 66.182 24.5494C64.8558 29.3918 64.1927 32.2815 64.1927 33.2184C64.1927 33.6685 64.2353 33.9727 64.3204 34.1309C64.4056 34.2891 64.5638 34.3681 64.795 34.3681C65.0383 34.3681 65.5311 34.0153 66.2732 33.3096C67.0276 32.6039 68.1287 31.4906 69.5766 29.9698V32.0138C69.4063 32.1842 69.0899 32.5005 68.6276 32.9629C68.1774 33.4252 67.8428 33.7659 67.6238 33.9849L66.6565 34.9339C66.2428 35.3598 65.9082 35.6822 65.6527 35.9012C65.4094 36.1202 65.1052 36.394 64.7402 36.7225C64.3752 37.051 64.071 37.3065 63.8277 37.489C63.5843 37.6593 63.3227 37.8357 63.0429 38.0183C62.5197 38.3589 62.0817 38.5293 61.7289 38.5293C60.7312 38.5293 60.2323 37.7202 60.2323 36.1019C60.2323 35.3233 60.3357 34.5081 60.5426 33.6564ZM62.6596 24.6589C62.611 24.4885 62.392 24.3304 62.0026 24.1844C61.6254 24.0262 61.2726 23.9471 60.9441 23.9471C59.8977 23.9471 58.8818 24.4277 57.8963 25.3889C56.9107 26.3501 56.132 27.5181 55.5602 28.893C54.9883 30.2557 54.7024 31.5576 54.7024 32.7986C54.7024 34.3438 55.2013 35.1164 56.199 35.1164C56.9776 35.1164 57.951 34.6784 59.119 33.8024C60.2871 32.9142 60.9319 32.2207 61.0536 31.7218L62.6596 24.6589ZM72.8799 27.6885C73.8046 28.8808 74.8267 29.477 75.946 29.477C76.6517 29.477 77.2601 29.1302 77.7711 28.4367C78.2943 27.7432 78.5558 27.0132 78.5558 26.2467C78.5558 25.4801 78.4098 24.9691 78.1178 24.7136C77.838 24.4459 77.4243 24.3121 76.8768 24.3121C76.3415 24.3121 75.8365 24.4338 75.362 24.6771C74.8997 24.9205 74.5042 25.2246 74.1757 25.5896C73.543 26.3075 73.1111 27.0071 72.8799 27.6885ZM82.8995 30.0063V32.0138C80.9649 34.1431 79.2372 35.7613 77.7163 36.8685C76.1954 37.9757 74.7476 38.5293 73.3727 38.5293C70.623 38.5293 68.9074 37.635 68.2261 35.8464C67.9705 35.1408 67.8428 34.2891 67.8428 33.2914C67.8428 31.515 68.2139 29.8238 68.9561 28.2177C69.6983 26.5995 70.7629 25.2733 72.1499 24.2391C73.5491 23.1927 75.1004 22.6696 76.8038 22.6696C79.6752 22.6696 81.1109 23.7403 81.1109 25.8817C81.1109 27.2687 80.5512 28.4793 79.4319 29.5135C78.3125 30.5355 77.0532 31.0466 75.654 31.0466C75.0943 31.0466 74.5103 30.8823 73.902 30.5538C73.2936 30.2253 72.7765 29.7325 72.3507 29.0755C71.8275 30.1705 71.5659 31.2412 71.5659 32.2876C71.5659 35.0982 72.5879 36.5035 74.632 36.5035C75.1673 36.5035 75.8244 36.248 76.603 35.7369C77.3939 35.2259 78.0874 34.6906 78.6836 34.1309C79.292 33.559 80.0585 32.8108 80.9832 31.8861C81.9079 30.9492 82.5466 30.3226 82.8995 30.0063ZM83.301 38.5293C81.8409 38.5293 80.9406 37.5012 80.5999 35.4449C80.5269 34.9461 80.4904 34.429 80.4904 33.8936C80.4904 32.5674 80.8189 31.2291 81.4759 29.8785C82.1329 28.528 82.9968 27.3234 84.0675 26.2649C85.1504 25.2064 86.4401 24.3425 87.9366 23.6733C89.4453 23.0042 90.9845 22.6696 92.554 22.6696C93.3205 22.6696 94.3425 22.8703 95.6201 23.2718C95.6079 23.357 95.4862 23.9167 95.2551 24.9509C95.0239 25.9729 94.7927 27.0193 94.5616 28.09C93.9289 31.0222 93.6125 32.8412 93.6125 33.5469C93.6125 34.2526 93.795 34.6054 94.16 34.6054C94.9631 34.6054 96.8246 33.0602 99.7447 29.9698V32.0138C97.8953 33.9241 96.1311 35.4875 94.452 36.7042C92.7852 37.9209 91.6719 38.5293 91.1122 38.5293C90.1875 38.5293 89.7252 37.7323 89.7252 36.1384C89.7252 35.6153 89.7738 35.0252 89.8712 34.3681C88.9951 35.5118 87.9731 36.4913 86.8051 37.3065C85.6492 38.1217 84.4812 38.5293 83.301 38.5293ZM84.3778 32.8716C84.3778 34.6967 84.9739 35.6092 86.1663 35.6092C86.6773 35.6092 87.3039 35.3415 88.0461 34.8062C88.8005 34.2708 89.4818 33.6807 90.0902 33.0359L92.189 24.0566C90.8749 24.0566 89.6035 24.525 88.3746 25.4619C87.1458 26.3988 86.1724 27.5485 85.4545 28.9112C84.7367 30.2739 84.3778 31.5941 84.3778 32.8716ZM109.874 12.139C109.022 12.139 108.189 13.3253 107.373 15.6979C106.57 18.0704 105.646 21.7449 104.599 26.7212C105.512 25.7843 106.37 24.6589 107.173 23.3448C107.976 22.0186 108.621 20.735 109.107 19.494C110.141 16.8781 110.659 14.9983 110.659 13.8546C110.659 12.7109 110.397 12.139 109.874 12.139ZM100.785 38.5293C100.359 38.5293 100.067 38.4198 99.909 38.2008C99.7508 37.9817 99.6291 37.7992 99.5439 37.6532C99.4588 37.4951 99.3919 37.2882 99.3432 37.0327C99.2945 36.7772 99.2519 36.5582 99.2154 36.3757C99.1911 36.1932 99.1728 35.9499 99.1607 35.6457C99.1485 35.3293 99.1424 35.0921 99.1424 34.9339V34.2221C99.1424 31.8739 99.4649 29.2763 100.11 26.4292C100.767 23.5821 101.6 20.954 102.61 18.5449C103.632 16.1359 104.824 14.1162 106.187 12.4858C107.55 10.8554 108.876 10.0402 110.166 10.0402C110.957 10.0402 111.577 10.314 112.027 10.8615C112.49 11.3968 112.721 12.1998 112.721 13.2705C112.721 14.3291 112.557 15.5214 112.228 16.8476C111.912 18.1617 111.498 19.3723 110.987 20.4795C110.476 21.5745 109.91 22.6452 109.29 23.6916C108.669 24.7258 108.049 25.6383 107.428 26.4292C106.163 28.0352 105.177 29.1667 104.472 29.8238L103.997 30.2983C103.279 32.1963 102.92 33.6016 102.92 34.5142C102.92 35.4145 103.133 35.8647 103.559 35.8647C103.863 35.8647 104.697 35.1955 106.059 33.8571C107.422 32.5188 108.669 31.223 109.801 29.9698V32.0138C107.708 34.2647 105.974 35.8951 104.599 36.905C103.237 37.9027 101.965 38.4441 100.785 38.5293Z" fill="#35A1BF"/>
</svg>
